<?xml version="1.0" encoding="UTF-8" standalone="no"?><svg xmlns="http://www.w3.org/2000/svg" xmlns:xlink="http://www.w3.org/1999/xlink" contentStyleType="text/css" height="500px" preserveAspectRatio="none" style="width:445px;height:500px;background:#FFFFFF;" version="1.1" viewBox="0 0 445 500" width="445px" zoomAndPan="magnify"><defs/><g><!--class Client--><g id="elem_Client"><rect codeLine="3" fill="#F1F1F1" height="64.2969" id="Client" rx="2.5" ry="2.5" style="stroke:#181818;stroke-width:0.5;" width="148" x="107.5" y="7"/><ellipse cx="156.75" cy="23" fill="#ADD1B2" rx="11" ry="11" style="stroke:#181818;stroke-width:1.0;"/><path d="M159.7188,28.6406 Q159.1406,28.9375 158.5,29.0781 Q157.8594,29.2344 157.1563,29.2344 Q154.6563,29.2344 153.3281,27.5938 Q152.0156,25.9375 152.0156,22.8125 Q152.0156,19.6875 153.3281,18.0313 Q154.6563,16.375 157.1563,16.375 Q157.8594,16.375 158.5,16.5313 Q159.1563,16.6875 159.7188,16.9844 L159.7188,19.7031 Q159.0938,19.125 158.5,18.8594 Q157.9063,18.5781 157.2813,18.5781 Q155.9375,18.5781 155.25,19.6563 Q154.5625,20.7188 154.5625,22.8125 Q154.5625,24.9063 155.25,25.9844 Q155.9375,27.0469 157.2813,27.0469 Q157.9063,27.0469 158.5,26.7813 Q159.0938,26.5 159.7188,25.9219 L159.7188,28.6406 Z " fill="#000000"/><text fill="#000000" font-family="sans-serif" font-size="14" lengthAdjust="spacing" textLength="41" x="177.25" y="27.8467">Client</text><line style="stroke:#181818;stroke-width:0.5;" x1="108.5" x2="254.5" y1="39" y2="39"/><rect fill="none" height="6" style="stroke:#C82930;stroke-width:1.0;" width="6" x="115.5" y="49.6484"/><text fill="#000000" font-family="sans-serif" font-size="14" lengthAdjust="spacing" textLength="122" x="127.5" y="55.9951">adapter: Adapter</text><line style="stroke:#181818;stroke-width:0.5;" x1="108.5" x2="254.5" y1="63.2969" y2="63.2969"/></g><!--class Adaptee--><g id="elem_Adaptee"><rect codeLine="7" fill="#F1F1F1" height="64.2969" id="Adaptee" rx="2.5" ry="2.5" style="stroke:#181818;stroke-width:0.5;" width="92" x="39.5" y="288.5"/><ellipse cx="54.5" cy="304.5" fill="#B4A7E5" rx="11" ry="11" style="stroke:#181818;stroke-width:1.0;"/><path d="M50.4219,300.2656 L50.4219,298.1094 L57.8125,298.1094 L57.8125,300.2656 L55.3438,300.2656 L55.3438,308.3438 L57.8125,308.3438 L57.8125,310.5 L50.4219,310.5 L50.4219,308.3438 L52.8906,308.3438 L52.8906,300.2656 L50.4219,300.2656 Z " fill="#000000"/><text fill="#000000" font-family="sans-serif" font-size="14" font-style="italic" lengthAdjust="spacing" textLength="60" x="68.5" y="309.3467">Adaptee</text><line style="stroke:#181818;stroke-width:0.5;" x1="40.5" x2="130.5" y1="320.5" y2="320.5"/><line style="stroke:#181818;stroke-width:0.5;" x1="40.5" x2="130.5" y1="328.5" y2="328.5"/><ellipse cx="50.5" cy="342.1484" fill="#84BE84" rx="3" ry="3" style="stroke:#038048;stroke-width:1.0;"/><text fill="#000000" font-family="sans-serif" font-size="14" lengthAdjust="spacing" textLength="64" x="59.5" y="345.4951">request()</text></g><!--class ConcreteAdaptee--><g id="elem_ConcreteAdaptee"><rect codeLine="11" fill="#F1F1F1" height="64.2969" id="ConcreteAdaptee" rx="2.5" ry="2.5" style="stroke:#181818;stroke-width:0.5;" width="157" x="7" y="429"/><ellipse cx="22" cy="445" fill="#ADD1B2" rx="11" ry="11" style="stroke:#181818;stroke-width:1.0;"/><path d="M24.9688,450.6406 Q24.3906,450.9375 23.75,451.0781 Q23.1094,451.2344 22.4063,451.2344 Q19.9063,451.2344 18.5781,449.5938 Q17.2656,447.9375 17.2656,444.8125 Q17.2656,441.6875 18.5781,440.0313 Q19.9063,438.375 22.4063,438.375 Q23.1094,438.375 23.75,438.5313 Q24.4063,438.6875 24.9688,438.9844 L24.9688,441.7031 Q24.3438,441.125 23.75,440.8594 Q23.1563,440.5781 22.5313,440.5781 Q21.1875,440.5781 20.5,441.6563 Q19.8125,442.7188 19.8125,444.8125 Q19.8125,446.9063 20.5,447.9844 Q21.1875,449.0469 22.5313,449.0469 Q23.1563,449.0469 23.75,448.7813 Q24.3438,448.5 24.9688,447.9219 L24.9688,450.6406 Z " fill="#000000"/><text fill="#000000" font-family="sans-serif" font-size="14" lengthAdjust="spacing" textLength="125" x="36" y="449.8467">ConcreteAdaptee</text><line style="stroke:#181818;stroke-width:0.5;" x1="8" x2="163" y1="461" y2="461"/><line style="stroke:#181818;stroke-width:0.5;" x1="8" x2="163" y1="469" y2="469"/><ellipse cx="18" cy="482.6484" fill="#84BE84" rx="3" ry="3" style="stroke:#038048;stroke-width:1.0;"/><text fill="#000000" font-family="sans-serif" font-size="14" lengthAdjust="spacing" textLength="64" x="27" y="485.9951">request()</text></g><!--class Target--><g id="elem_Target"><rect codeLine="15" fill="#F1F1F1" height="64.2969" id="Target" rx="2.5" ry="2.5" style="stroke:#181818;stroke-width:0.5;" width="148" x="290.5" y="7"/><ellipse cx="336.75" cy="23" fill="#B4A7E5" rx="11" ry="11" style="stroke:#181818;stroke-width:1.0;"/><path d="M332.6719,18.7656 L332.6719,16.6094 L340.0625,16.6094 L340.0625,18.7656 L337.5938,18.7656 L337.5938,26.8438 L340.0625,26.8438 L340.0625,29 L332.6719,29 L332.6719,26.8438 L335.1406,26.8438 L335.1406,18.7656 L332.6719,18.7656 Z " fill="#000000"/><text fill="#000000" font-family="sans-serif" font-size="14" font-style="italic" lengthAdjust="spacing" textLength="47" x="357.25" y="27.8467">Target</text><line style="stroke:#181818;stroke-width:0.5;" x1="291.5" x2="437.5" y1="39" y2="39"/><line style="stroke:#181818;stroke-width:0.5;" x1="291.5" x2="437.5" y1="47" y2="47"/><ellipse cx="301.5" cy="60.6484" fill="#84BE84" rx="3" ry="3" style="stroke:#038048;stroke-width:1.0;"/><text fill="#000000" font-family="sans-serif" font-size="14" lengthAdjust="spacing" textLength="122" x="310.5" y="63.9951">specificRequest()</text></g><!--class Adapter--><g id="elem_Adapter"><rect codeLine="19" fill="#F1F1F1" height="80.5938" id="Adapter" rx="2.5" ry="2.5" style="stroke:#181818;stroke-width:0.5;" width="154" x="104.5" y="131"/><ellipse cx="148.75" cy="147" fill="#B4A7E5" rx="11" ry="11" style="stroke:#181818;stroke-width:1.0;"/><path d="M144.6719,142.7656 L144.6719,140.6094 L152.0625,140.6094 L152.0625,142.7656 L149.5938,142.7656 L149.5938,150.8438 L152.0625,150.8438 L152.0625,153 L144.6719,153 L144.6719,150.8438 L147.1406,150.8438 L147.1406,142.7656 L144.6719,142.7656 Z " fill="#000000"/><text fill="#000000" font-family="sans-serif" font-size="14" font-style="italic" lengthAdjust="spacing" textLength="57" x="169.25" y="151.8467">Adapter</text><line style="stroke:#181818;stroke-width:0.5;" x1="105.5" x2="257.5" y1="163" y2="163"/><rect fill="none" height="6" style="stroke:#C82930;stroke-width:1.0;" width="6" x="112.5" y="173.6484"/><text fill="#000000" font-family="sans-serif" font-size="14" lengthAdjust="spacing" textLength="128" x="124.5" y="179.9951">adaptee: Adaptee</text><line style="stroke:#181818;stroke-width:0.5;" x1="105.5" x2="257.5" y1="187.2969" y2="187.2969"/><ellipse cx="115.5" cy="200.9453" fill="#84BE84" rx="3" ry="3" style="stroke:#038048;stroke-width:1.0;"/><text fill="#000000" font-family="sans-serif" font-size="14" lengthAdjust="spacing" textLength="122" x="124.5" y="204.292">specificRequest()</text></g><!--class ConcreteAdapter--><g id="elem_ConcreteAdapter"><rect codeLine="24" fill="#F1F1F1" height="96.8906" id="ConcreteAdapter" rx="2.5" ry="2.5" style="stroke:#181818;stroke-width:0.5;" width="221" x="167" y="272"/><ellipse cx="212.25" cy="288" fill="#ADD1B2" rx="11" ry="11" style="stroke:#181818;stroke-width:1.0;"/><path d="M215.2188,293.6406 Q214.6406,293.9375 214,294.0781 Q213.3594,294.2344 212.6563,294.2344 Q210.1563,294.2344 208.8281,292.5938 Q207.5156,290.9375 207.5156,287.8125 Q207.5156,284.6875 208.8281,283.0313 Q210.1563,281.375 212.6563,281.375 Q213.3594,281.375 214,281.5313 Q214.6563,281.6875 215.2188,281.9844 L215.2188,284.7031 Q214.5938,284.125 214,283.8594 Q213.4063,283.5781 212.7813,283.5781 Q211.4375,283.5781 210.75,284.6563 Q210.0625,285.7188 210.0625,287.8125 Q210.0625,289.9063 210.75,290.9844 Q211.4375,292.0469 212.7813,292.0469 Q213.4063,292.0469 214,291.7813 Q214.5938,291.5 215.2188,290.9219 L215.2188,293.6406 Z " fill="#000000"/><text fill="#000000" font-family="sans-serif" font-size="14" lengthAdjust="spacing" textLength="122" x="232.75" y="292.8467">ConcreteAdapter</text><line style="stroke:#181818;stroke-width:0.5;" x1="168" x2="387" y1="304" y2="304"/><line style="stroke:#181818;stroke-width:0.5;" x1="168" x2="387" y1="312" y2="312"/><ellipse cx="178" cy="325.6484" fill="#84BE84" rx="3" ry="3" style="stroke:#038048;stroke-width:1.0;"/><text fill="#000000" font-family="sans-serif" font-size="14" lengthAdjust="spacing" textLength="195" x="187" y="328.9951">Adapter(adaptee: Adaptee)</text><text fill="#000000" font-family="sans-serif" font-size="14" lengthAdjust="spacing" textLength="4" x="187" y="345.292"> </text><ellipse cx="178" cy="358.2422" fill="#84BE84" rx="3" ry="3" style="stroke:#038048;stroke-width:1.0;"/><text fill="#000000" font-family="sans-serif" font-size="14" lengthAdjust="spacing" textLength="122" x="187" y="361.5889">specificRequest()</text></g><!--reverse link Adaptee to ConcreteAdaptee--><g id="link_Adaptee_ConcreteAdaptee"><path d="M85.5,372.62 C85.5,391.37 85.5,412.02 85.5,428.54 " fill="none" id="Adaptee-backto-ConcreteAdaptee" style="stroke:#181818;stroke-width:1.0;stroke-dasharray:7.0,7.0;"/><polygon fill="none" points="78.5,372.58,85.5,352.58,92.5,372.58,78.5,372.58" style="stroke:#181818;stroke-width:1.0;"/></g><!--reverse link Adapter to ConcreteAdapter--><g id="link_Adapter_ConcreteAdapter"><path d="M218.67,229.42 C227.83,243.44 237.54,258.31 246.38,271.84 " fill="none" id="Adapter-backto-ConcreteAdapter" style="stroke:#181818;stroke-width:1.0;stroke-dasharray:7.0,7.0;"/><polygon fill="none" points="212.55,232.85,207.48,212.28,224.28,225.2,212.55,232.85" style="stroke:#181818;stroke-width:1.0;"/></g><!--reverse link Adapter to Adaptee--><g id="link_Adapter_Adaptee"><path codeLine="30" d="M148.37,223.24 C134.3,244.78 118.34,269.21 106.02,288.07 " fill="none" id="Adapter-backto-Adaptee" style="stroke:#181818;stroke-width:1.0;stroke-dasharray:7.0,7.0;"/><polygon fill="none" points="155.52,212.28,148.8918,215.1203,148.9644,222.3311,155.5925,219.4907,155.52,212.28" style="stroke:#181818;stroke-width:1.0;"/></g><!--reverse link Client to Adapter--><g id="link_Client_Adapter"><path codeLine="31" d="M181.5,84.44 C181.5,99.4 181.5,116 181.5,130.59 " fill="none" id="Client-backto-Adapter" style="stroke:#181818;stroke-width:1.0;stroke-dasharray:7.0,7.0;"/><polygon fill="none" points="181.5,71.26,177.5,77.26,181.5,83.26,185.5,77.26,181.5,71.26" style="stroke:#181818;stroke-width:1.0;"/></g><!--SRC=[VP0n3eCm34Ltdo9RGHMmirMzGTKBMC7GI4b87JEXthsq3I1HH2RR-ld_sQU7I8XrLGMBNWPdIzsxIbkCiMWCTemEuDkggpNaHOsWfbSeR308SQqklm9U0CPFHOkQqf2I-goOdWD5oVAFBFdrNZC9pLBZWYKtHSJZtsl87RaZMLGna3QjqRTzTUBSB43p0dJaiaVC_yIyiAG-suRaS1Gpk_HbkL2biwyZ1dW3]--></g></svg>